<svg width="12" height="11" viewBox="0 0 12 11" fill="none" xmlns="http://www.w3.org/2000/svg">
<path fill-rule="evenodd" clip-rule="evenodd" d="M2.28 0.219999C2.13783 0.0875191 1.94978 0.0153959 1.75548 0.0188241C1.56118 0.0222523 1.37579 0.100964 1.23838 0.238377C1.10097 0.37579 1.02225 0.561175 1.01883 0.755476C1.0154 0.949778 1.08752 1.13782 1.22 1.28L4.94 5L1.22 8.72C1.14631 8.78866 1.08721 8.87146 1.04622 8.96346C1.00523 9.05546 0.983186 9.15477 0.981409 9.25548C0.979633 9.35618 0.998157 9.45621 1.03588 9.5496C1.0736 9.64299 1.12974 9.72782 1.20096 9.79904C1.27218 9.87026 1.35702 9.9264 1.4504 9.96412C1.54379 10.0018 1.64382 10.0204 1.74452 10.0186C1.84523 10.0168 1.94454 9.99477 2.03654 9.95378C2.12854 9.91279 2.21134 9.85369 2.28 9.78L6 6.06L9.72 9.78C9.78866 9.85369 9.87146 9.91279 9.96346 9.95378C10.0555 9.99477 10.1548 10.0168 10.2555 10.0186C10.3562 10.0204 10.4562 10.0018 10.5496 9.96412C10.643 9.9264 10.7278 9.87026 10.799 9.79904C10.8703 9.72782 10.9264 9.64299 10.9641 9.5496C11.0018 9.45621 11.0204 9.35618 11.0186 9.25548C11.0168 9.15477 10.9948 9.05546 10.9538 8.96346C10.9128 8.87146 10.8537 8.78866 10.78 8.72L7.06 5L10.78 1.28C10.9125 1.13782 10.9846 0.949778 10.9812 0.755476C10.9777 0.561175 10.899 0.37579 10.7616 0.238377C10.6242 0.100964 10.4388 0.0222523 10.2445 0.0188241C10.0502 0.0153959 9.86218 0.0875191 9.72 0.219999L6 3.94L2.28 0.219999Z" fill="black"/>
</svg>
