<svg width="32" height="24" viewBox="0 0 32 24" fill="none" xmlns="http://www.w3.org/2000/svg">
<path d="M1.375 17.625L9.11352 9.88648C10.4315 8.56846 12.5685 8.56847 13.8865 9.88649L21.625 17.625M19.375 15.375L21.4885 13.2615C22.8065 11.9435 24.9435 11.9435 26.2615 13.2615L30.625 17.625M3.625 23.25H28.375C29.6176 23.25 30.625 22.2426 30.625 21V3C30.625 1.75736 29.6176 0.75 28.375 0.75H3.625C2.38236 0.75 1.375 1.75736 1.375 3V21C1.375 22.2426 2.38236 23.25 3.625 23.25ZM19.375 6.375H19.3863V6.38625H19.375V6.375ZM19.9375 6.375C19.9375 6.68566 19.6857 6.9375 19.375 6.9375C19.0643 6.9375 18.8125 6.68566 18.8125 6.375C18.8125 6.06434 19.0643 5.8125 19.375 5.8125C19.6857 5.8125 19.9375 6.06434 19.9375 6.375Z" stroke="#0F172A" stroke-width="1.5" stroke-linecap="round" stroke-linejoin="round"/>
</svg>
