<svg width="30" height="30" viewBox="0 0 30 30" fill="none" xmlns="http://www.w3.org/2000/svg">
<path d="M11.8184 8.27827C13.5757 6.74058 16.425 6.74058 18.1823 8.27827C19.9397 9.81596 19.9397 12.309 18.1823 13.8467C17.8765 14.1144 17.5375 14.3354 17.177 14.5099C16.0585 15.0512 15.0003 16.0074 15.0003 17.25V18.375M28.5 15C28.5 22.4558 22.4558 28.5 15 28.5C7.54416 28.5 1.5 22.4558 1.5 15C1.5 7.54416 7.54416 1.5 15 1.5C22.4558 1.5 28.5 7.54416 28.5 15ZM15 22.875H15.0113V22.8863H15V22.875Z" stroke="#0F172A" stroke-width="1.5" stroke-linecap="round" stroke-linejoin="round"/>
</svg>
