<svg width="32" height="22" viewBox="0 0 32 22" fill="none" xmlns="http://www.w3.org/2000/svg">
<path d="M1.375 2.6875C1.375 1.75552 2.13052 1 3.0625 1H12.0625C12.9945 1 13.75 1.75552 13.75 2.6875V8.3125C13.75 9.24448 12.9945 10 12.0625 10H3.0625C2.13052 10 1.375 9.24448 1.375 8.3125V2.6875Z" stroke="#0F172A" stroke-width="1.5" stroke-linecap="round" stroke-linejoin="round"/>
<path d="M19.375 4.9375C19.375 4.00552 20.1305 3.25 21.0625 3.25H28.9375C29.8695 3.25 30.625 4.00552 30.625 4.9375V17.3125C30.625 18.2445 29.8695 19 28.9375 19H21.0625C20.1305 19 19.375 18.2445 19.375 17.3125V4.9375Z" stroke="#0F172A" stroke-width="1.5" stroke-linecap="round" stroke-linejoin="round"/>
<path d="M3.625 16.1875C3.625 15.2555 4.38052 14.5 5.3125 14.5H13.1875C14.1195 14.5 14.875 15.2555 14.875 16.1875V19.5625C14.875 20.4945 14.1195 21.25 13.1875 21.25H5.3125C4.38052 21.25 3.625 20.4945 3.625 19.5625V16.1875Z" stroke="#0F172A" stroke-width="1.5" stroke-linecap="round" stroke-linejoin="round"/>
</svg>
